<svg xmlns="http://www.w3.org/2000/svg" viewBox="0 0 32 32" width="32" height="32">
  <defs>
    <linearGradient id="sunGradient" x1="0%" y1="0%" x2="100%" y2="100%">
      <stop offset="0%" style="stop-color:#FFD700;stop-opacity:1" />
      <stop offset="100%" style="stop-color:#FFA500;stop-opacity:1" />
    </linearGradient>
    <linearGradient id="cloudGradient" x1="0%" y1="0%" x2="100%" y2="100%">
      <stop offset="0%" style="stop-color:#E6F3FF;stop-opacity:1" />
      <stop offset="100%" style="stop-color:#B3D9FF;stop-opacity:1" />
    </linearGradient>
  </defs>
  
  <!-- Sun -->
  <circle cx="10" cy="10" r="4" fill="url(#sunGradient)" stroke="#FF8C00" stroke-width="0.5"/>
  
  <!-- Sun rays -->
  <g stroke="#FFD700" stroke-width="1" stroke-linecap="round">
    <line x1="10" y1="2" x2="10" y2="4"/>
    <line x1="10" y1="16" x2="10" y2="18"/>
    <line x1="2" y1="10" x2="4" y2="10"/>
    <line x1="16" y1="10" x2="18" y2="10"/>
    <line x1="4.6" y1="4.6" x2="5.9" y2="5.9"/>
    <line x1="14.1" y1="14.1" x2="15.4" y2="15.4"/>
    <line x1="4.6" y1="15.4" x2="5.9" y2="14.1"/>
    <line x1="14.1" y1="5.9" x2="15.4" y2="4.6"/>
  </g>
  
  <!-- Main cloud -->
  <ellipse cx="19" cy="17.5" rx="9" ry="6" fill="url(#cloudGradient)" stroke="#87CEEB" stroke-width="0.5"/>
  
  <!-- Cloud bumps -->
  <circle cx="12.5" cy="15" r="4" fill="url(#cloudGradient)" stroke="#87CEEB" stroke-width="0.5"/>
  <circle cx="22.5" cy="14" r="3" fill="url(#cloudGradient)" stroke="#87CEEB" stroke-width="0.5"/>
  <circle cx="26" cy="16.5" r="2.5" fill="url(#cloudGradient)" stroke="#87CEEB" stroke-width="0.5"/>
  
  <!-- Raindrops -->
  <g fill="#4A90E2" opacity="0.8">
    <ellipse cx="15" cy="24" rx="0.75" ry="1.5"/>
    <ellipse cx="19" cy="26" rx="0.75" ry="1.5"/>
    <ellipse cx="23" cy="24" rx="0.75" ry="1.5"/>
    <ellipse cx="17" cy="28" rx="0.75" ry="1.5"/>
  </g>
</svg>
